<svg width="60" height="30" viewBox="0 0 60 30" xmlns="http://www.w3.org/2000/svg">
    <g fill="none" fill-rule="evenodd">
        <g fill="#252525" fill-opacity="0.2">
            <path d="M36 34v-4h-2v4h-4v2h8v-2h-2zm7.071 1.707l-1.414 1.414-1.414-1.414 1.414-1.414 1.414 1.414zM30 34h-4v2h4v-2zm-6.829 3.293l-1.414-1.414 1.414-1.414 1.414 1.414-1.414 1.414zM24 34v-4h-2v4h-4v2h8v-2h-2zM4.172 3.828l-1.415 1.415-1.414-1.415 1.414-1.414 1.415 1.414zM0 4h4v-2H0v2zm4 2.828l1.414-1.414 1.414 1.414L5.414 6.828 4 6.828zM30 15h4v2h-4v-2zm-5.829-1.707l1.414-1.414 1.414 1.414-1.414 1.414-1.414-1.414zM24 15v-4h-2v4h-4v2h8v-2h-2zm-5.657-3.242l1.414 1.414-1.414 1.414-1.414-1.414 1.414-1.414zM18 15h-4v2h4v-2zm-7.071-3.121l-1.414-1.415 1.414-1.414 1.414 1.414-1.414 1.415zM12 8v4h2V8h-2zm8.485 5.657l-1.414 1.414-1.414-1.414 1.414-1.414 1.414 1.414zM18 8h4v-2h-4v2zm7.071 3.293l1.414-1.414 1.414 1.414-1.414 1.414-1.414 1.414zM36 4v-4h-2v4h-4v2h8v-2h-2zm7.071-1.707l1.414 1.414-1.414 1.414-1.414-1.414 1.414 1.414zM30 4v2h4V4h-4zm6.829 3.293l1.414-1.414 1.414 1.414-1.414 1.414-1.414 1.414z"/>
        </g>
    </g>
</svg>
